<svg width="122" height="27" viewBox="0 0 122 27" fill="none" xmlns="http://www.w3.org/2000/svg">
<path d="M28.3326 8.69806C27.7955 8.47835 26.9166 8.25864 25.8669 8.25864C23.1327 8.25864 21.2041 9.67456 21.2041 11.6764C21.1797 13.1655 22.5712 13.9956 23.621 14.4838C24.6951 14.9965 25.0613 15.3138 25.0613 15.7777C25.0613 16.4612 24.2069 16.7786 23.4012 16.7786C22.3027 16.7786 21.7168 16.6321 20.7891 16.2415L20.4229 16.0706L20.0323 18.3898C20.667 18.6828 21.8633 18.9269 23.1083 18.9513C26.0134 18.9513 27.8931 17.5598 27.9176 15.4115C27.9176 14.2397 27.1852 13.3364 25.5984 12.6041C24.6219 12.1158 24.036 11.7984 24.036 11.3102C24.036 10.8708 24.5486 10.4069 25.6228 10.4069C26.526 10.3825 27.1852 10.6022 27.6978 10.7975L27.942 10.9196L28.3326 8.69806ZM35.4122 8.45394H33.2883C32.6292 8.45394 32.1409 8.64924 31.848 9.30837L27.7467 18.8048H30.6517C30.6517 18.8048 31.1156 17.5354 31.2376 17.2424C31.555 17.2424 34.3624 17.2424 34.7775 17.2424C34.8507 17.6086 35.1192 18.8048 35.1192 18.8048H37.6825L35.4122 8.45394ZM32.0188 15.1185C32.2386 14.5326 33.1174 12.2135 33.1174 12.2135C33.093 12.2379 33.3371 11.6031 33.4836 11.237L33.6789 12.1402C33.6789 12.1402 34.216 14.6059 34.3136 15.143L32.0188 15.1185ZM15.5648 18.8048L17.2981 8.45394H20.0567L18.3234 18.8048H15.5648ZM13.2457 8.45394L10.5359 15.5091L10.2429 14.0688C9.73025 12.4088 8.16785 10.6266 6.41016 9.72338L8.87582 18.7804H11.8053L16.1507 8.42952L13.2457 8.45394Z" fill="#265697"/>
<path d="M8.02162 8.4299H3.55414L3.52972 8.64961C6.9963 9.50405 9.29107 11.5791 10.2432 14.0692L9.26666 9.30875C9.09577 8.64961 8.63193 8.45431 8.02162 8.4299Z" fill="#D97B16"/>
<path d="M57.5783 18.6229H63.7449V8.55542H57.5783V18.6229Z" fill="#FF5F00"/>
<path d="M58.2092 13.6013C58.2092 15.5634 59.1202 17.4088 60.6619 18.6234C57.8822 20.8191 53.8646 20.3286 51.6689 17.5489C49.4732 14.7692 49.9637 10.7516 52.7434 8.5559C55.0558 6.73394 58.326 6.73394 60.6619 8.5559C59.1202 9.77054 58.2092 11.6392 58.2092 13.6013Z" fill="#EB001B"/>
<path d="M71.0096 13.6007C71.0096 10.0735 68.1365 7.20046 64.6094 7.20046C63.1845 7.20046 61.783 7.69099 60.6618 8.57861C63.4415 10.7743 63.932 14.792 61.7363 17.5716C61.4326 17.9687 61.0589 18.3424 60.6618 18.6461C63.4415 20.8418 67.4591 20.3513 69.6548 17.5716C70.5424 16.427 71.0096 15.0255 71.0096 13.6007Z" fill="#F79E1B"/>
<path d="M85.3034 8.69485L80.6746 18.9382H86.2159L86.9029 17.305H88.4732L89.1601 18.9382H95.2596V17.6917L95.8031 18.9382H98.9582L99.5017 17.6654V18.9382H112.187L113.729 17.3474L115.174 18.9382L121.689 18.9514L117.046 13.8451L121.689 8.69485H115.275L113.773 10.2563L112.374 8.69485H98.5745L97.3895 11.3388L96.1767 8.69485H90.647V9.89897L90.0318 8.69485C90.0318 8.69485 85.3034 8.69485 85.3034 8.69485ZM86.3756 10.1494H89.0767L92.147 17.0955V10.1494H95.106L97.4774 15.1297L99.663 10.1494H102.607V17.4997H100.816L100.801 11.7401L98.1893 17.4997H96.5867L93.9603 11.7401V17.4997H90.2749L89.5762 15.8519H85.8015L85.1042 17.4983H83.1296C83.1296 17.4983 86.3756 10.1494 86.3756 10.1494ZM104.246 10.1494H111.531L113.759 12.556L116.058 10.1494H118.286L114.901 13.8437L118.286 17.4954H115.957L113.729 15.0608L111.418 17.4954H104.246V10.1494ZM87.6896 11.3931L86.446 14.3286H88.9318L87.6896 11.3931ZM106.045 11.6713V13.0131H110.019V14.5087H106.045V15.9735H110.502L112.574 13.8159L110.59 11.67H106.045V11.6713Z" fill="#26A6D1"/>
</svg>
