<svg width="122" height="17" viewBox="0 0 122 17" fill="none" xmlns="http://www.w3.org/2000/svg">
<path d="M28.3326 3.41187C27.7955 3.19215 26.9166 2.97244 25.8669 2.97244C23.1327 2.97244 21.2041 4.38837 21.2041 6.39019C21.1797 7.87935 22.5712 8.70938 23.621 9.19762C24.6951 9.71029 25.0613 10.0277 25.0613 10.4915C25.0613 11.175 24.2069 11.4924 23.4012 11.4924C22.3027 11.4924 21.7168 11.3459 20.7891 10.9553L20.4229 10.7844L20.0323 13.1036C20.667 13.3966 21.8633 13.6407 23.1083 13.6651C26.0134 13.6651 27.8931 12.2736 27.9176 10.1253C27.9176 8.9535 27.1852 8.05024 25.5984 7.31786C24.6219 6.82961 24.036 6.51225 24.036 6.024C24.036 5.58458 24.5486 5.12074 25.6228 5.12074C26.526 5.09633 27.1852 5.31604 27.6978 5.51134L27.942 5.6334L28.3326 3.41187ZM35.4122 3.16774H33.2883C32.6292 3.16774 32.1409 3.36304 31.848 4.02218L27.7467 13.5186H30.6517C30.6517 13.5186 31.1156 12.2492 31.2376 11.9562C31.555 11.9562 34.3624 11.9562 34.7775 11.9562C34.8507 12.3224 35.1192 13.5186 35.1192 13.5186H37.6825L35.4122 3.16774ZM32.0188 9.83235C32.2386 9.24645 33.1174 6.92726 33.1174 6.92726C33.093 6.95168 33.3371 6.31695 33.4836 5.95077L33.6789 6.85403C33.6789 6.85403 34.216 9.31969 34.3136 9.85676L32.0188 9.83235ZM15.5648 13.5186L17.2981 3.16774H20.0567L18.3234 13.5186H15.5648ZM13.2457 3.16774L10.5359 10.2229L10.2429 8.78261C9.73025 7.12256 8.16785 5.34045 6.41016 4.43719L8.87582 13.4942H11.8053L16.1507 3.14333L13.2457 3.16774Z" fill="#265697"/>
<path d="M8.02162 3.14371H3.55414L3.52972 3.36342C6.9963 4.21786 9.29107 6.29292 10.2432 8.78299L9.26666 4.02256C9.09577 3.36342 8.63193 3.16812 8.02162 3.14371Z" fill="#D97B16"/>
<path d="M57.5783 13.3367H63.7449V3.26923H57.5783V13.3367Z" fill="#FF5F00"/>
<path d="M58.2092 8.31513C58.2092 10.2772 59.1202 12.1226 60.6619 13.3372C57.8822 15.5329 53.8646 15.0424 51.6689 12.2627C49.4732 9.48305 49.9637 5.4654 52.7434 3.26971C55.0558 1.44775 58.326 1.44775 60.6619 3.26971C59.1202 4.48435 58.2092 6.35302 58.2092 8.31513Z" fill="#EB001B"/>
<path d="M71.0096 8.31448C71.0096 4.78735 68.1365 1.91426 64.6094 1.91426C63.1845 1.91426 61.783 2.40479 60.6618 3.29241C63.4415 5.48811 63.932 9.50576 61.7363 12.2854C61.4326 12.6825 61.0589 13.0562 60.6618 13.3599C63.4415 15.5556 67.4591 15.0651 69.6548 12.2854C70.5424 11.1409 71.0096 9.73934 71.0096 8.31448Z" fill="#F79E1B"/>
<path d="M85.3034 3.40866L80.6746 13.6521H86.2159L86.9029 12.0188H88.4732L89.1601 13.6521H95.2596V12.4055L95.8031 13.6521H98.9582L99.5017 12.3792V13.6521H112.187L113.729 12.0612L115.174 13.6521L121.689 13.6652L117.046 8.55895L121.689 3.40866H115.275L113.773 4.97007L112.374 3.40866H98.5745L97.3895 6.05257L96.1767 3.40866H90.647V4.61277L90.0318 3.40866C90.0318 3.40866 85.3034 3.40866 85.3034 3.40866ZM86.3756 4.86323H89.0767L92.147 11.8093V4.86323H95.106L97.4774 9.84356L99.663 4.86323H102.607V12.2135H100.816L100.801 6.45389L98.1893 12.2135H96.5867L93.9603 6.45389V12.2135H90.2749L89.5762 10.5657H85.8015L85.1042 12.2121H83.1296C83.1296 12.2121 86.3756 4.86323 86.3756 4.86323ZM104.246 4.86323H111.531L113.759 7.26985L116.058 4.86323H118.286L114.901 8.55751L118.286 12.2092H115.957L113.729 9.77463L111.418 12.2092H104.246V4.86323ZM87.6896 6.10687L86.446 9.04237H88.9318L87.6896 6.10687ZM106.045 6.38512V7.72692H110.019V9.22246H106.045V10.6873H110.502L112.574 8.52971L110.59 6.38384H106.045V6.38512Z" fill="#26A6D1"/>
</svg>
