<svg width="17" height="17" viewBox="0 0 17 17" fill="none" xmlns="http://www.w3.org/2000/svg">
<path fill-rule="evenodd" clip-rule="evenodd" d="M11.3675 6.36271H12.0342C12.7675 6.36271 13.3675 6.96271 13.3675 7.69604V14.3627C13.3675 15.096 12.7675 15.696 12.0342 15.696H4.03418C3.30084 15.696 2.70084 15.096 2.70084 14.3627V7.69604C2.70084 6.96271 3.30084 6.36271 4.03418 6.36271H4.70084V5.02938C4.70084 3.18938 6.19418 1.69604 8.03418 1.69604C9.87418 1.69604 11.3675 3.18938 11.3675 5.02938V6.36271ZM8.03418 3.02938C6.92751 3.02938 6.03418 3.92271 6.03418 5.02938V6.36271H10.0342V5.02938C10.0342 3.92271 9.14084 3.02938 8.03418 3.02938ZM4.03418 14.3627V7.69604H12.0342V14.3627H4.03418ZM9.36751 11.0294C9.36751 11.7627 8.76751 12.3627 8.03418 12.3627C7.30084 12.3627 6.70084 11.7627 6.70084 11.0294C6.70084 10.296 7.30084 9.69604 8.03418 9.69604C8.76751 9.69604 9.36751 10.296 9.36751 11.0294Z" fill="white"/>
<mask id="mask0" mask-type="alpha" maskUnits="userSpaceOnUse" x="2" y="1" width="12" height="15">
<path fill-rule="evenodd" clip-rule="evenodd" d="M11.3675 6.36271H12.0342C12.7675 6.36271 13.3675 6.96271 13.3675 7.69604V14.3627C13.3675 15.096 12.7675 15.696 12.0342 15.696H4.03418C3.30084 15.696 2.70084 15.096 2.70084 14.3627V7.69604C2.70084 6.96271 3.30084 6.36271 4.03418 6.36271H4.70084V5.02938C4.70084 3.18938 6.19418 1.69604 8.03418 1.69604C9.87418 1.69604 11.3675 3.18938 11.3675 5.02938V6.36271ZM8.03418 3.02938C6.92751 3.02938 6.03418 3.92271 6.03418 5.02938V6.36271H10.0342V5.02938C10.0342 3.92271 9.14084 3.02938 8.03418 3.02938ZM4.03418 14.3627V7.69604H12.0342V14.3627H4.03418ZM9.36751 11.0294C9.36751 11.7627 8.76751 12.3627 8.03418 12.3627C7.30084 12.3627 6.70084 11.7627 6.70084 11.0294C6.70084 10.296 7.30084 9.69604 8.03418 9.69604C8.76751 9.69604 9.36751 10.296 9.36751 11.0294Z" fill="white"/>
</mask>
<g mask="url(#mask0)">
<rect x="0.0341797" y="0.696045" width="16" height="16" fill="#8E9196"/>
</g>
</svg>
