<svg width="70" height="16" viewBox="0 0 70 16" fill="none" xmlns="http://www.w3.org/2000/svg">
<path d="M26.6576 3.87546H22.852C22.5916 3.87546 22.3701 4.05061 22.3295 4.28861L20.7904 13.3228C20.7598 13.5011 20.9089 13.6618 21.1042 13.6618H22.921C23.1814 13.6618 23.4029 13.4866 23.4435 13.2481L23.8586 10.8115C23.8987 10.5729 24.1207 10.3978 24.3806 10.3978H25.5853C28.0921 10.3978 29.5389 9.27476 29.9167 7.04931C30.087 6.07567 29.924 5.31067 29.4315 4.77491C28.8906 4.18661 27.9313 3.87546 26.6576 3.87546ZM27.0966 7.175C26.8885 8.43919 25.8452 8.43918 24.8363 8.43918H24.2621L24.6649 6.07825C24.6889 5.93555 24.8224 5.83046 24.9782 5.83046H25.2414C25.9286 5.83046 26.5769 5.83046 26.9119 6.19312C27.1117 6.40949 27.1729 6.73094 27.0966 7.175Z" fill="#253B80"/>
<path d="M38.0331 7.13428H36.2107C36.0555 7.13428 35.9214 7.23937 35.8975 7.38207L35.8168 7.85395L35.6893 7.68292C35.2948 7.15283 34.4151 6.97562 33.537 6.97562C31.5232 6.97562 29.8032 8.38765 29.4682 10.3684C29.294 11.3565 29.5417 12.3013 30.1471 12.9601C30.7024 13.566 31.497 13.8184 32.4424 13.8184C34.0651 13.8184 34.9648 12.8525 34.9648 12.8525L34.8836 13.3213C34.853 13.5005 35.0021 13.6613 35.1963 13.6613H36.8379C37.0988 13.6613 37.3192 13.4861 37.3604 13.2476L38.3453 7.47325C38.3764 7.29553 38.2279 7.13428 38.0331 7.13428ZM35.4929 10.4179C35.3171 11.3817 34.4907 12.0287 33.4368 12.0287C32.9076 12.0287 32.4847 11.8716 32.2132 11.5739C31.9439 11.2782 31.8415 10.8573 31.9272 10.3885C32.0913 9.43289 32.9316 8.76474 33.9693 8.76474C34.4868 8.76474 34.9075 8.92392 35.1846 9.22425C35.4623 9.52768 35.5725 9.95113 35.4929 10.4179Z" fill="#253B80"/>
<path d="M47.7387 7.13428H45.9075C45.7327 7.13428 45.5686 7.21464 45.4695 7.3491L42.9438 10.7934L41.8732 7.48355C41.8058 7.27646 41.5994 7.13428 41.3657 7.13428H39.5661C39.3474 7.13428 39.1955 7.3321 39.2651 7.5227L41.2822 13.0029L39.3858 15.4813C39.2367 15.6765 39.387 15.9449 39.6446 15.9449H41.4736C41.6473 15.9449 41.8097 15.8666 41.9082 15.7347L47.9992 7.59534C48.1449 7.40061 47.9953 7.13428 47.7387 7.13428Z" fill="#253B80"/>
<path d="M53.8019 3.87546H49.9958C49.7359 3.87546 49.5144 4.05061 49.4738 4.28861L47.9347 13.3228C47.9041 13.5011 48.0532 13.6618 48.2474 13.6618H50.2005C50.3819 13.6618 50.5372 13.5392 50.5656 13.3723L51.0024 10.8115C51.0424 10.5729 51.2645 10.3978 51.5243 10.3978H52.7285C55.2359 10.3978 56.6821 9.27476 57.0605 7.04931C57.2313 6.07567 57.0671 5.31067 56.5747 4.77491C56.0344 4.18661 55.0756 3.87546 53.8019 3.87546ZM54.2409 7.175C54.0334 8.43919 52.99 8.43918 51.9806 8.43918H51.4069L51.8103 6.07825C51.8343 5.93555 51.9667 5.83046 52.1231 5.83046H52.3863C53.0729 5.83046 53.7218 5.83046 54.0567 6.19312C54.2565 6.40949 54.3172 6.73094 54.2409 7.175Z" fill="#179BD7"/>
<path d="M65.1768 7.13428H63.3556C63.1992 7.13428 63.0662 7.23937 63.0429 7.38207L62.9622 7.85395L62.8342 7.68292C62.4397 7.15283 61.5605 6.97562 60.6824 6.97562C58.6686 6.97562 56.9492 8.38765 56.6142 10.3684C56.4406 11.3565 56.6871 12.3013 57.2925 12.9601C57.8489 13.566 58.6424 13.8184 59.5879 13.8184C61.2105 13.8184 62.1102 12.8525 62.1102 12.8525L62.029 13.3213C61.9984 13.5005 62.1475 13.6613 62.3428 13.6613H63.9838C64.2437 13.6613 64.4651 13.4861 64.5058 13.2476L65.4912 7.47325C65.5213 7.29553 65.3722 7.13428 65.1768 7.13428ZM62.6366 10.4179C62.4619 11.3817 61.6345 12.0287 60.5806 12.0287C60.0525 12.0287 59.6285 11.8716 59.3569 11.5739C59.0876 11.2782 58.9863 10.8573 59.0709 10.3885C59.2362 9.43289 60.0753 8.76474 61.1131 8.76474C61.6306 8.76474 62.0513 8.92392 62.3284 9.22425C62.6072 9.52768 62.7173 9.95113 62.6366 10.4179Z" fill="#179BD7"/>
<path d="M67.3252 4.12324L65.7633 13.3228C65.7327 13.5011 65.8818 13.6618 66.076 13.6618H67.6463C67.9073 13.6618 68.1287 13.4866 68.1688 13.2481L69.7091 4.21442C69.7397 4.03618 69.5905 3.87494 69.3963 3.87494H67.638C67.4827 3.87545 67.3492 3.98054 67.3252 4.12324Z" fill="#179BD7"/>
<path d="M4.98647 15.4174L5.2775 13.7061L4.62923 13.6922H1.53369L3.68493 1.06427C3.69161 1.02615 3.71331 0.990602 3.74503 0.96536C3.77675 0.940118 3.81737 0.926208 3.85966 0.926208H9.07917C10.812 0.926208 12.0078 1.26003 12.6321 1.91891C12.9248 2.228 13.1112 2.551 13.2014 2.90645C13.296 3.27942 13.2976 3.72503 13.2053 4.26851L13.1986 4.30818V4.65642L13.4913 4.80994C13.7378 4.931 13.9337 5.06957 14.0839 5.22824C14.3343 5.49251 14.4962 5.82839 14.5647 6.2266C14.6353 6.63615 14.612 7.12348 14.4962 7.67521C14.3627 8.30987 14.1468 8.86263 13.8552 9.31494C13.587 9.73169 13.2453 10.0774 12.8397 10.3452C12.4524 10.5997 11.9922 10.7929 11.4719 10.9165C10.9678 11.0381 10.393 11.0994 9.7625 11.0994H9.35629C9.06582 11.0994 8.7837 11.1963 8.56223 11.3699C8.34021 11.5471 8.1933 11.7892 8.14823 12.054L8.11763 12.208L7.60347 15.2242L7.58009 15.335C7.57397 15.37 7.5634 15.3875 7.54782 15.3994C7.53391 15.4102 7.51388 15.4174 7.4944 15.4174H4.98647Z" fill="#253B80"/>
<path d="M13.7684 4.34836C13.7528 4.44057 13.735 4.53484 13.715 4.63169C13.0267 7.90342 10.6718 9.03366 7.66416 9.03366H6.1328C5.76499 9.03366 5.45504 9.28093 5.39773 9.61681L4.61369 14.2202L4.39166 15.5251C4.35438 15.7456 4.53801 15.9444 4.7784 15.9444H7.49444C7.81607 15.9444 8.08928 15.7281 8.13992 15.4344L8.16663 15.3067L8.67801 12.3023L8.71084 12.1375C8.76092 11.8428 9.0347 11.6264 9.35632 11.6264H9.76253C12.394 11.6264 14.454 10.6373 15.0561 7.77515C15.3076 6.57948 15.1774 5.58112 14.5118 4.87896C14.3104 4.66724 14.0606 4.49157 13.7684 4.34836Z" fill="#179BD7"/>
<path d="M13.0484 4.08252C12.9432 4.05418 12.8347 4.02843 12.7234 4.00524C12.6115 3.98258 12.4969 3.96249 12.3789 3.94497C11.9661 3.88315 11.5137 3.85379 11.029 3.85379H6.93796C6.83725 3.85379 6.74154 3.87491 6.65584 3.91303C6.4672 3.997 6.32698 4.16237 6.29304 4.36482L5.42275 9.46791L5.39771 9.61679C5.45502 9.28091 5.76496 9.03364 6.13278 9.03364H7.66413C10.6718 9.03364 13.0267 7.90288 13.715 4.63167C13.7356 4.53482 13.7528 4.44055 13.7684 4.34834C13.5942 4.26282 13.4056 4.18967 13.2025 4.12734C13.1524 4.11188 13.1007 4.09694 13.0484 4.08252Z" fill="#222D65"/>
<path d="M6.29308 4.36483C6.32702 4.16238 6.46725 3.99701 6.65589 3.91356C6.74214 3.87544 6.83729 3.85432 6.93801 3.85432H11.029C11.5137 3.85432 11.9661 3.88368 12.379 3.9455C12.497 3.96301 12.6116 3.98311 12.7234 4.00577C12.8347 4.02895 12.9432 4.05471 13.0484 4.08305C13.1007 4.09747 13.1525 4.11241 13.2031 4.12735C13.4062 4.18968 13.5948 4.26335 13.769 4.34835C13.9738 3.13929 13.7673 2.31608 13.0612 1.57065C12.2827 0.750015 10.8777 0.398682 9.07979 0.398682H3.86027C3.49301 0.398682 3.17973 0.645954 3.12297 0.982348L0.948918 13.7401C0.906071 13.9925 1.11641 14.2202 1.3913 14.2202H4.61371L5.42279 9.46792L6.29308 4.36483Z" fill="#253B80"/>
</svg>
