<svg width="36" height="12" viewBox="0 0 36 12" fill="none" xmlns="http://www.w3.org/2000/svg">
<path d="M25.7484 0.898073C25.2113 0.678361 24.3325 0.458649 23.2828 0.458649C20.5486 0.458649 18.62 1.87457 18.62 3.8764C18.5956 5.36556 19.9871 6.19558 21.0368 6.68383C22.111 7.19649 22.4771 7.51386 22.4771 7.97769C22.4771 8.66124 21.6227 8.97861 20.8171 8.97861C19.7185 8.97861 19.1326 8.83213 18.205 8.44153L17.8388 8.27064L17.4482 10.5898C18.0829 10.8828 19.2791 11.1269 20.5241 11.1513C23.4292 11.1513 25.309 9.7598 25.3334 7.61151C25.3334 6.43971 24.601 5.53645 23.0142 4.80407C22.0377 4.31582 21.4518 3.99846 21.4518 3.51021C21.4518 3.07078 21.9645 2.60695 23.0386 2.60695C23.9419 2.58253 24.601 2.80225 25.1137 2.99755L25.3578 3.11961L25.7484 0.898073ZM32.828 0.653948H30.7041C30.045 0.653948 29.5568 0.849249 29.2638 1.50839L25.1625 11.0048H28.0676C28.0676 11.0048 28.5314 9.73539 28.6535 9.44244C28.9709 9.44244 31.7783 9.44244 32.1933 9.44244C32.2665 9.80863 32.5351 11.0048 32.5351 11.0048H35.0984L32.828 0.653948ZM29.4347 7.31856C29.6544 6.73266 30.5333 4.41347 30.5333 4.41347C30.5088 4.43788 30.753 3.80316 30.8994 3.43697L31.0947 4.34023C31.0947 4.34023 31.6318 6.80589 31.7295 7.34297L29.4347 7.31856ZM12.9807 11.0048L14.714 0.653948H17.4726L15.7393 11.0048H12.9807ZM10.6615 0.653948L7.95171 7.70916L7.65876 6.26882C7.1461 4.60877 5.5837 2.82666 3.826 1.9234L6.29166 10.9804H9.22116L13.5666 0.629536L10.6615 0.653948Z" fill="#265697"/>
<path d="M5.43747 0.629913H0.969984L0.945572 0.849626C4.41214 1.70406 6.70692 3.77912 7.659 6.2692L6.6825 1.50876C6.51162 0.849626 6.04778 0.654326 5.43747 0.629913Z" fill="#D97B16"/>
</svg>
