<svg width="148" height="25" viewBox="0 0 148 25" fill="none" xmlns="http://www.w3.org/2000/svg">
<path d="M12.5758 0.415527C5.9654 0.415527 0.583496 5.79743 0.583496 12.4078C0.583496 19.0182 5.9654 24.4001 12.5758 24.4001C19.1862 24.4001 24.5681 19.0182 24.5681 12.4078C24.5681 5.79743 19.1862 0.415527 12.5758 0.415527ZM1.79735 12.4078C1.79735 10.843 2.13372 9.36586 2.73333 8.02039L7.86661 22.104C4.26893 20.3637 1.79735 16.6782 1.79735 12.4078ZM12.5758 23.1862C11.5228 23.1862 10.4991 23.0254 9.53383 22.7475L12.7659 13.3438L16.0857 22.4257C16.1003 22.4842 16.1296 22.5281 16.1588 22.572C15.0327 22.9669 13.8335 23.1862 12.5758 23.1862ZM14.0529 7.34765C14.6964 7.3184 15.2814 7.24528 15.2814 7.24528C15.8663 7.17215 15.7932 6.32392 15.2082 6.35317C15.2082 6.35317 13.4679 6.48479 12.3272 6.48479C11.2742 6.48479 9.48996 6.35317 9.48996 6.35317C8.90497 6.32392 8.84647 7.2014 9.41684 7.24528C9.41684 7.24528 9.97257 7.3184 10.5429 7.34765L12.2248 11.9544L9.89945 19.0328L5.9654 7.34765C6.60889 7.3184 7.19388 7.24528 7.19388 7.24528C7.77886 7.17215 7.70574 6.32392 7.12075 6.35317C7.12075 6.35317 5.38041 6.48479 4.2543 6.48479C4.04956 6.48479 3.81556 6.48479 3.56694 6.47017C5.49741 3.54522 8.8026 1.61476 12.5758 1.61476C15.3837 1.61476 17.9431 2.68236 19.8589 4.45195C19.815 4.45195 19.7711 4.43733 19.7126 4.43733C18.6597 4.43733 17.8992 5.35869 17.8992 6.35317C17.8992 7.24528 18.411 7.99114 18.9522 8.88325C19.3617 9.59986 19.8443 10.5212 19.8443 11.8521C19.8443 12.7734 19.5664 13.9434 19.0253 15.3328L17.9431 18.9304L14.0529 7.34765ZM17.9869 21.7238L21.2775 12.2031C21.8917 10.6675 22.0965 9.43899 22.0965 8.34213C22.0965 7.94726 22.0672 7.58165 22.0234 7.23065C22.8716 8.76625 23.3396 10.5212 23.3396 12.4078C23.3542 16.3857 21.2044 19.8518 17.9869 21.7238Z" fill="white"/>
<path d="M106.73 12.8465C106.73 12.2031 107.432 11.9544 108.178 11.9544C109.391 11.9544 110.547 12.3347 110.547 12.3347V10.5797C109.757 10.3457 108.953 10.258 108.017 10.258C105.969 10.258 104.536 11.2232 104.536 12.8027C104.536 15.8592 108.763 15.0841 108.763 16.5612C108.763 17.2925 108.105 17.4972 107.139 17.4972C106.452 17.4972 105.37 17.234 104.58 16.9561V18.6964C105.238 18.9597 106.159 19.1937 107.066 19.1937C109.055 19.1937 110.956 18.6087 110.956 16.4735C110.956 13.5193 106.73 14.2798 106.73 12.8465ZM117.874 14.6454C117.874 12.6564 118.971 11.9837 120.258 11.9837C121.121 11.9837 122.027 12.2323 122.627 12.4663V10.6821C121.91 10.4481 121.281 10.2726 120.214 10.2726C117.406 10.2726 115.665 11.9983 115.665 14.7624C115.665 17.3948 116.923 19.2083 120.082 19.2083C121.091 19.2083 121.866 19.0182 122.729 18.7257V16.9707C121.764 17.351 121.018 17.4972 120.36 17.4972C118.971 17.468 117.874 16.8245 117.874 14.6454ZM57.0935 11.8667H57.0203V10.4627H55.046V18.9743H57.1666V13.9142C57.8247 12.6564 58.629 12.2469 59.9745 12.2469H60.1939V10.4042C60.1939 10.4042 59.8868 10.375 59.6235 10.375C58.4682 10.3603 57.6784 10.8137 57.0935 11.8667ZM83.6081 11.8667H83.535V10.4627H81.5606V18.9743H83.6666V13.9142C84.3247 12.6564 85.1291 12.2469 86.4745 12.2469H86.6939V10.4042C86.6939 10.4042 86.3868 10.375 86.1235 10.375C84.9828 10.3603 84.1931 10.8137 83.6081 11.8667ZM144.754 10.258C143.847 10.258 142.809 10.7552 141.858 11.3841L141.61 11.5449C141.156 10.5943 140.264 10.258 139.284 10.258C138.378 10.258 137.339 10.726 136.389 11.3548V10.4773H134.371V18.9889H136.506V12.8758C137.295 12.3493 138.129 12.0276 138.743 12.0276C139.445 12.0276 139.869 12.4078 139.869 13.607V18.9743H141.99V12.8904C142.78 12.3639 143.613 12.0276 144.228 12.0276C144.93 12.0276 145.354 12.4078 145.354 13.607V18.9743H147.46V13.0952C147.46 11.4572 146.48 10.258 144.754 10.258ZM128.374 17.4972C127 17.4972 126.268 16.6051 126.268 14.7331C126.268 12.8904 127 11.9691 128.374 11.9691C129.749 11.9691 130.466 12.8612 130.466 14.7331C130.466 16.5759 129.749 17.4972 128.374 17.4972ZM128.374 10.258C125.449 10.258 124.075 12.1446 124.075 14.7331C124.075 17.3217 125.449 19.1937 128.374 19.1937C131.27 19.1937 132.674 17.3363 132.674 14.7331C132.674 12.1299 131.27 10.258 128.374 10.258ZM99.0372 12.8465C99.0372 12.2031 99.7392 11.9544 100.485 11.9544C101.699 11.9544 102.854 12.3347 102.854 12.3347V10.5797C102.065 10.3457 101.26 10.258 100.324 10.258C98.2767 10.258 96.8435 11.2232 96.8435 12.8027C96.8435 15.8592 101.07 15.0841 101.07 16.5612C101.07 17.2925 100.412 17.4972 99.4467 17.4972C98.7593 17.4972 97.6771 17.234 96.8873 16.9561V18.6964C97.5455 18.9597 98.4668 19.1937 99.3736 19.1937C101.363 19.1937 103.264 18.6087 103.264 16.4735C103.264 13.5193 99.0372 14.2798 99.0372 12.8465ZM89.8675 13.7825C89.9991 12.5979 90.6426 11.8521 91.6956 11.8521C92.8217 11.8521 93.158 12.7442 93.158 13.7825H89.8675ZM91.7102 10.258C88.99 10.258 87.5714 12.3786 87.5714 14.6746C87.5714 17.8482 89.2386 19.1937 91.9442 19.1937C93.041 19.1937 93.977 19.0474 95.0885 18.7111V16.9561C94.1964 17.2778 93.4067 17.4826 92.5438 17.4826C90.9643 17.4826 89.9114 17.0585 89.8675 15.1865H95.3079C95.3371 14.8501 95.381 14.5284 95.381 13.9288C95.3664 12.1299 94.4158 10.258 91.7102 10.258ZM75.8277 13.0513H74.1459V8.75162H75.8277C77.1878 8.75162 77.8752 9.49749 77.8752 10.843C77.8752 12.1738 77.2463 13.0513 75.8277 13.0513ZM75.8131 6.98203H71.8937V18.9743H74.1459V14.8063H75.7985C78.3578 14.8063 80.2298 13.4315 80.2298 10.843C80.2444 8.25438 78.3724 6.98203 75.8131 6.98203ZM67.1699 16.532C66.4825 17.1608 65.839 17.4972 65.1663 17.4972C63.9963 17.4972 63.2505 16.7221 63.2505 14.9233C63.2505 12.9782 64.1864 11.9544 65.7952 11.9544C66.2924 11.9544 66.8189 12.0861 67.1699 12.2177V16.532V16.532ZM67.1699 10.4481C66.541 10.3165 66.1023 10.258 65.5758 10.258C62.6508 10.258 61.0568 12.2031 61.0568 15.0549C61.0568 17.8775 62.6509 19.1937 64.5374 19.1937C65.4734 19.1937 66.5995 18.7696 67.2723 18.1846V18.9743H69.2905V6.98203H67.1845V10.4481H67.1699ZM49.0499 17.4972C47.6751 17.4972 46.9439 16.6051 46.9439 14.7331C46.9439 12.8904 47.6751 11.9691 49.0499 11.9691C50.4246 11.9691 51.1412 12.8612 51.1412 14.7331C51.1412 16.5759 50.4246 17.4972 49.0499 17.4972ZM49.0499 10.258C46.1249 10.258 44.7502 12.1446 44.7502 14.7331C44.7502 17.3217 46.1249 19.1937 49.0499 19.1937C51.9455 19.1937 53.3495 17.3363 53.3495 14.7331C53.3495 12.1299 51.9455 10.258 49.0499 10.258ZM112.36 18.9743H114.481V16.7952H112.36V18.9743ZM42.8343 6.98203L40.4359 16.1664L38.0521 6.98203H35.639L36.1947 8.95637L34.0888 16.4881L31.7927 6.99666H29.4673L32.7287 18.9889H35.2587L37.2184 12.5687L39.0465 18.9889H41.5766L44.9988 6.99666H42.8343V6.98203Z" fill="white"/>
</svg>
